<?xml version="1.0" encoding="UTF-8" standalone="no"?>
<!-- Created with Inkscape (http://www.inkscape.org/) -->

<svg
   xmlns:dc="http://purl.org/dc/elements/1.1/"
   xmlns:cc="http://creativecommons.org/ns#"
   xmlns:rdf="http://www.w3.org/1999/02/22-rdf-syntax-ns#"
   xmlns:svg="http://www.w3.org/2000/svg"
   xmlns="http://www.w3.org/2000/svg"
   xmlns:sodipodi="http://sodipodi.sourceforge.net/DTD/sodipodi-0.dtd"
   xmlns:inkscape="http://www.inkscape.org/namespaces/inkscape"
   width="150"
   height="350"
   viewBox="0 0 150.00001 350"
   id="svg2"
   version="1.1"
   inkscape:version="0.91 r13725">
  <defs
     id="defs4" />
  <sodipodi:namedview
     id="base"
     pagecolor="#000000"
     bordercolor="#666666"
     borderopacity="1.0"
     inkscape:pageopacity="0"
     inkscape:pageshadow="2"
     inkscape:zoom="1.979899"
     inkscape:cx="49.721329"
     inkscape:cy="155.2126"
     inkscape:document-units="px"
     inkscape:current-layer="g4537"
     showgrid="false"
     inkscape:window-width="1680"
     inkscape:window-height="985"
     inkscape:window-x="1680"
     inkscape:window-y="0"
     inkscape:window-maximized="1"
     units="px"
     inkscape:snap-text-baseline="false" />
  <metadata
     id="metadata7">
    <rdf:RDF>
      <cc:Work
         rdf:about="">
        <dc:format>image/svg+xml</dc:format>
        <dc:type
           rdf:resource="http://purl.org/dc/dcmitype/StillImage" />
        <dc:title></dc:title>
      </cc:Work>
    </rdf:RDF>
  </metadata>
  <g
     inkscape:label="4320"
     inkscape:groupmode="layer"
     id="layer1"
     transform="translate(0,-702.36219)"
     style="display:none"
     sodipodi:insensitive="true">
    <rect
       style="opacity:1;fill:#ffffff;fill-opacity:1;stroke:none;stroke-width:5.5;stroke-linecap:butt;stroke-linejoin:miter;stroke-miterlimit:4;stroke-dasharray:none;stroke-opacity:1"
       id="rect4147"
       width="150.00002"
       height="50.000004"
       x="0"
       y="1002.3622"
       rx="4.9411759"
       ry="4.516129" />
    <rect
       style="opacity:1;fill:#000000;fill-opacity:1;stroke:none;stroke-width:5.5;stroke-linecap:butt;stroke-linejoin:miter;stroke-miterlimit:4;stroke-dasharray:none;stroke-opacity:1"
       id="rect4149"
       width="50.000008"
       height="45.000004"
       x="2.5000002"
       y="1004.8622"
       rx="3.9772725"
       ry="3.7724552" />
    <text
       xml:space="preserve"
       style="font-style:normal;font-weight:normal;font-size:75.70582581px;line-height:125%;font-family:sans-serif;letter-spacing:0px;word-spacing:0px;fill:#ffffff;fill-opacity:1;stroke:none;stroke-width:1px;stroke-linecap:butt;stroke-linejoin:miter;stroke-opacity:1"
       x="6.5885859"
       y="1161.6887"
       id="text4159"
       sodipodi:linespacing="125%"
       transform="scale(1.1128755,0.89857311)"><tspan
         sodipodi:role="line"
         id="tspan4161"
         x="6.5885859"
         y="1161.6887"
         style="font-style:normal;font-variant:normal;font-weight:normal;font-stretch:normal;font-size:50.00000381px;font-family:'League Gothic';-inkscape-font-specification:'League Gothic';letter-spacing:2.00000024px;word-spacing:0px;fill:#ffffff;fill-opacity:1">8k</tspan></text>
    <text
       xml:space="preserve"
       style="font-style:normal;font-weight:normal;font-size:75.97075653px;line-height:125%;font-family:sans-serif;letter-spacing:-36.41168976px;word-spacing:-10.85296249px;fill:#000000;fill-opacity:1;stroke:none;stroke-width:1px;stroke-linecap:butt;stroke-linejoin:miter;stroke-opacity:1"
       x="53.73436"
       y="1190.7333"
       id="text4218"
       sodipodi:linespacing="125%"
       transform="scale(1.1410829,0.87636052)"><tspan
         sodipodi:role="line"
         x="53.73436"
         y="1190.7333"
         style="font-style:normal;font-variant:normal;font-weight:normal;font-stretch:normal;font-size:50.00000381px;font-family:'League Gothic';-inkscape-font-specification:'League Gothic';letter-spacing:0px;word-spacing:0px"
         id="tspan4212">4320</tspan></text>
  </g>
  <g
     style="display:inline"
     transform="translate(0,-702.36219)"
     id="g4537"
     inkscape:groupmode="layer"
     inkscape:label="4320 Diff">
    <path
       style="opacity:1;fill:#ffffff;fill-opacity:1;stroke:none;stroke-width:5.5;stroke-linecap:butt;stroke-linejoin:miter;stroke-miterlimit:4;stroke-dasharray:none;stroke-opacity:1"
       d="M 4.9414062 300 C 2.2039955 300 0 302.0137 0 304.51562 L 0 345.48438 C 0 347.9863 2.2039955 350 4.9414062 350 L 145.05859 350 C 147.796 350 150 347.9863 150 345.48438 L 150 304.51562 C 150 302.0137 147.796 300 145.05859 300 L 4.9414062 300 z M 6.4765625 302.5 L 48.523438 302.5 C 50.726845 302.5 52.5 304.18154 52.5 306.27148 L 52.5 343.72656 C 52.5 345.8165 50.726845 347.5 48.523438 347.5 L 6.4765625 347.5 C 4.2731541 347.5 2.5 345.8165 2.5 343.72656 L 2.5 306.27148 C 2.5 304.18154 4.2731541 302.5 6.4765625 302.5 z M 89.787109 308.5918 C 93.666791 308.5918 95.662479 310.12678 96.689453 311.74805 C 97.716428 313.36931 97.773438 315.12126 97.773438 315.51562 C 97.773438 320.29179 96.689427 322.56963 94.806641 324.01562 L 94.75 324.06055 C 97.716815 325.85709 98.287109 329.18758 98.287109 332.91211 C 98.287109 333.04356 98.287523 333.35003 98.230469 333.83203 C 98.173415 334.75221 97.830721 336.10954 97.203125 337.51172 C 96.518475 338.9139 95.378053 340.18478 93.609375 340.92969 C 92.696509 341.32405 91.611073 341.5 90.298828 341.5 C 86.419146 341.5 84.423872 340.01087 83.339844 338.03906 C 82.255815 336.11107 82.140625 333.65591 82.140625 331.85938 L 88.189453 331.85938 C 88.189453 334.00646 88.358847 335.36472 88.701172 336.19727 C 89.043497 337.07363 89.557124 337.33789 90.298828 337.33789 C 91.268749 337.33789 91.783502 336.76724 92.011719 335.97852 C 92.239935 335.18979 92.240234 334.1819 92.240234 333.26172 C 92.240234 332.2539 92.239821 331.3345 92.296875 330.50195 C 92.296875 328.9245 91.89623 327.82915 90.583984 327.17188 C 89.899335 326.86515 88.872792 326.64538 87.560547 326.60156 L 87.046875 326.60156 L 87.046875 322.6582 C 89.614311 322.52675 90.812685 322.13307 91.326172 321.21289 C 91.611443 320.77471 91.726563 320.20499 91.726562 319.50391 L 91.726562 316.91797 C 91.726562 315.99779 91.726263 314.99075 91.498047 314.1582 C 91.26983 313.32566 90.75703 312.75586 89.787109 312.75586 C 89.045406 312.75586 88.587592 313.01902 88.359375 313.85156 C 88.074104 314.72792 87.960937 316.08534 87.960938 318.23242 L 81.912109 318.23242 C 81.912109 316.43588 81.969119 313.98158 82.996094 312.00977 C 84.023068 310.08177 85.907428 308.5918 89.787109 308.5918 z M 109.69727 308.5918 C 112.83524 308.5918 114.94598 309.51189 116.20117 310.91406 C 117.45636 312.36006 117.91406 314.37661 117.91406 316.61133 C 117.91406 319.89768 116.31525 323.7967 114.31836 327.43359 C 112.26441 331.11431 109.869 334.40149 108.27148 336.46094 L 118.02734 336.46094 L 118.02734 341.15039 L 101.31055 341.15039 L 101.31055 336.46094 C 103.19333 334.22622 104.90485 331.94846 106.44531 329.66992 C 107.75756 327.74193 109.0125 325.55113 109.98242 323.31641 C 110.95234 321.08169 111.6949 318.88978 111.75195 316.91797 C 111.75195 316.04161 111.69543 315.03397 111.41016 314.28906 C 111.12489 313.54416 110.61013 312.97461 109.69727 312.97461 C 108.84145 312.97461 108.32824 313.45711 108.04297 314.1582 C 107.7577 314.90311 107.64453 315.86634 107.64453 316.91797 L 107.64453 319.15234 L 101.48242 319.15234 L 101.48242 316.91797 C 101.48242 314.77089 101.88194 312.6684 103.08008 311.13477 C 104.27822 309.60113 106.33107 308.5918 109.69727 308.5918 z M 130.23633 308.5918 C 132.29028 308.5918 133.83157 309.03023 134.97266 309.6875 C 136.11374 310.34477 136.91229 311.2213 137.42578 312.09766 C 138.05338 313.10547 138.39607 314.28982 138.45312 315.56055 L 138.45312 334.5332 C 138.39607 335.84774 138.05338 337.03125 137.42578 338.03906 C 136.91229 338.91542 136.11374 339.74703 134.97266 340.4043 C 133.83157 341.10539 132.29028 341.5 130.23633 341.5 C 128.18238 341.5 126.58444 341.10539 125.44336 340.4043 C 124.30228 339.74703 123.56232 338.91542 123.04883 338.03906 C 122.42123 337.03125 122.07854 335.84774 122.02148 334.5332 L 122.02148 315.56055 C 122.07854 314.28982 122.42123 313.10547 123.04883 312.09766 C 123.56232 311.2213 124.30228 310.34477 125.44336 309.6875 C 126.58444 309.03023 128.18238 308.5918 130.23633 308.5918 z M 71.013672 308.94336 L 77.175781 308.94336 L 77.175781 329.97656 L 80.029297 329.97656 L 80.029297 334.13867 L 77.175781 334.13867 L 77.175781 341.15039 L 71.527344 341.15039 L 71.527344 334.13867 L 62 334.13867 L 62 329.97656 L 71.013672 308.94336 z M 130.23633 313.19336 C 129.1523 313.19336 128.63837 313.80732 128.41016 314.37695 C 128.23899 314.7275 128.18359 315.12237 128.18359 315.56055 L 128.18359 334.5332 C 128.18359 335.45338 128.46852 336.06683 129.03906 336.54883 C 129.32433 336.76792 129.72284 336.89844 130.23633 336.89844 C 131.32036 336.89844 131.83428 336.37407 132.0625 335.7168 C 132.23366 335.41007 132.29102 335.0152 132.29102 334.5332 L 132.29102 315.56055 C 132.29102 314.68419 132.06273 314.07074 131.49219 313.54492 C 131.20692 313.32583 130.74982 313.19336 130.23633 313.19336 z M 71.185547 318.93359 L 70.84375 319.89844 L 67.248047 329.97656 L 71.527344 329.97656 L 71.527344 318.93359 L 71.185547 318.93359 z "
       transform="translate(0,702.36217)"
       id="rect4539" />
    <text
       transform="scale(1.1128755,0.89857311)"
       sodipodi:linespacing="125%"
       id="text4543"
       y="1161.6887"
       x="6.5885859"
       style="font-style:normal;font-weight:normal;font-size:75.70582581px;line-height:125%;font-family:sans-serif;letter-spacing:0px;word-spacing:0px;fill:#ffffff;fill-opacity:1;stroke:none;stroke-width:1px;stroke-linecap:butt;stroke-linejoin:miter;stroke-opacity:1"
       xml:space="preserve"><tspan
         style="font-style:normal;font-variant:normal;font-weight:normal;font-stretch:normal;font-size:50.00000381px;font-family:'League Gothic';-inkscape-font-specification:'League Gothic';letter-spacing:2.00000024px;word-spacing:0px;fill:#ffffff;fill-opacity:1"
         y="1161.6887"
         x="6.5885859"
         id="tspan4545"
         sodipodi:role="line">8k</tspan></text>
  </g>
  <g
     style="display:none"
     transform="translate(0,-702.36219)"
     id="g4369"
     inkscape:groupmode="layer"
     inkscape:label="2160"
     sodipodi:insensitive="true">
    <rect
       ry="4.516129"
       rx="4.9411759"
       y="952.36218"
       x="0"
       height="50.000004"
       width="150.00002"
       id="rect4371"
       style="opacity:1;fill:#ffffff;fill-opacity:1;stroke:none;stroke-width:5.5;stroke-linecap:butt;stroke-linejoin:miter;stroke-miterlimit:4;stroke-dasharray:none;stroke-opacity:1" />
    <rect
       ry="3.7724552"
       rx="3.9772725"
       y="954.86218"
       x="2.5000002"
       height="45.000004"
       width="50.000008"
       id="rect4373"
       style="opacity:1;fill:#000000;fill-opacity:1;stroke:none;stroke-width:5.5;stroke-linecap:butt;stroke-linejoin:miter;stroke-miterlimit:4;stroke-dasharray:none;stroke-opacity:1" />
    <text
       transform="scale(1.1128755,0.89857311)"
       sodipodi:linespacing="125%"
       id="text4375"
       y="1106.0449"
       x="6.5885859"
       style="font-style:normal;font-weight:normal;font-size:75.70582581px;line-height:125%;font-family:sans-serif;letter-spacing:0px;word-spacing:0px;fill:#ffffff;fill-opacity:1;stroke:none;stroke-width:1px;stroke-linecap:butt;stroke-linejoin:miter;stroke-opacity:1"
       xml:space="preserve"><tspan
         style="font-style:normal;font-variant:normal;font-weight:normal;font-stretch:normal;font-size:50.00000381px;font-family:'League Gothic';-inkscape-font-specification:'League Gothic';letter-spacing:2.00000024px;word-spacing:0px;fill:#ffffff;fill-opacity:1"
         y="1106.0449"
         x="6.5885859"
         id="tspan4377"
         sodipodi:role="line">4k</tspan></text>
    <text
       transform="scale(1.1410829,0.87636052)"
       sodipodi:linespacing="125%"
       id="text4379"
       y="1133.6791"
       x="55.613441"
       style="font-style:normal;font-weight:normal;font-size:75.97075653px;line-height:125%;font-family:sans-serif;letter-spacing:-36.41168976px;word-spacing:-10.85296249px;fill:#000000;fill-opacity:1;stroke:none;stroke-width:1px;stroke-linecap:butt;stroke-linejoin:miter;stroke-opacity:1"
       xml:space="preserve"><tspan
         id="tspan4381"
         style="font-style:normal;font-variant:normal;font-weight:normal;font-stretch:normal;font-size:50.00000381px;font-family:'League Gothic';-inkscape-font-specification:'League Gothic';letter-spacing:0px;word-spacing:0px"
         y="1133.6791"
         x="55.613441"
         sodipodi:role="line">2160</tspan></text>
  </g>
  <g
     inkscape:label="2160 Diff"
     inkscape:groupmode="layer"
     id="g4523"
     transform="translate(0,-702.36219)"
     style="display:inline">
    <path
       style="opacity:1;fill:#ffffff;fill-opacity:1;stroke:none;stroke-width:5.5;stroke-linecap:butt;stroke-linejoin:miter;stroke-miterlimit:4;stroke-dasharray:none;stroke-opacity:1"
       d="M 4.9414062 250 C 2.2039955 250 0 252.0137 0 254.51562 L 0 295.48438 C 0 297.9863 2.2039955 300 4.9414062 300 L 145.05859 300 C 147.796 300 150 297.9863 150 295.48438 L 150 254.51562 C 150 252.0137 147.796 250 145.05859 250 L 4.9414062 250 z M 6.4765625 252.5 L 48.523438 252.5 C 50.726845 252.5 52.5 254.18154 52.5 256.27148 L 52.5 293.72656 C 52.5 295.8165 50.726845 297.5 48.523438 297.5 L 6.4765625 297.5 C 4.2731541 297.5 2.5 295.8165 2.5 293.72656 L 2.5 256.27148 C 2.5 254.18154 4.2731541 252.5 6.4765625 252.5 z M 73.386719 258.5918 C 76.524697 258.5918 78.635434 259.51189 79.890625 260.91406 C 81.145816 262.36006 81.603516 264.37661 81.603516 266.61133 C 81.603516 269.89768 80.004707 273.7967 78.007812 277.43359 C 75.953863 281.11431 73.558453 284.40149 71.960938 286.46094 L 81.716797 286.46094 L 81.716797 291.14844 L 65 291.14844 L 65 286.46094 C 66.882787 284.22622 68.594304 281.94846 70.134766 279.66992 C 71.447011 277.74193 72.701955 275.55113 73.671875 273.31641 C 74.641795 271.08169 75.384352 268.88978 75.441406 266.91797 C 75.441406 266.04161 75.382927 265.03397 75.097656 264.28906 C 74.812386 263.54416 74.299585 262.97461 73.386719 262.97461 C 72.530907 262.97461 72.017693 263.45711 71.732422 264.1582 C 71.447151 264.90311 71.333984 265.86634 71.333984 266.91797 L 71.333984 269.15234 L 65.171875 269.15234 L 65.171875 266.91797 C 65.171875 264.77089 65.571394 262.6684 66.769531 261.13477 C 67.967668 259.60113 70.020524 258.5918 73.386719 258.5918 z M 106.93359 258.5918 C 110.81328 258.5918 112.75386 259.95185 113.83789 261.5293 C 114.92192 263.15056 114.97852 265.12135 114.97852 266.2168 L 114.97852 268.23242 L 108.81641 268.23242 C 108.81641 266.08534 108.75947 264.68411 108.53125 263.85156 C 108.30303 263.01902 107.84646 262.71094 106.93359 262.71094 C 106.19189 262.71094 105.67939 262.97529 105.45117 263.54492 C 105.1659 264.11456 105.05078 264.98989 105.05078 266.2168 L 105.05078 271.95703 C 106.13481 271.47503 107.04878 271.16797 108.13281 271.16797 C 111.32784 271.16797 113.03831 272.43877 113.95117 273.88477 C 114.86404 275.33076 114.97852 277.08458 114.97852 277.96094 L 114.97852 284.5332 C 114.97852 285.27811 114.86528 287.03082 113.78125 288.56445 C 112.69722 290.1419 110.64211 291.5 106.93359 291.5 C 103.11097 291.5 101.17192 290.1419 100.08789 288.56445 C 99.003862 287.03082 98.888672 285.27811 98.888672 284.5332 L 98.888672 266.2168 C 98.888672 265.12135 98.947221 263.15056 100.03125 261.5293 C 101.11528 259.95185 103.05391 258.5918 106.93359 258.5918 z M 126.67578 258.5918 C 128.72973 258.5918 130.26907 259.03023 131.41016 259.6875 C 132.55124 260.34477 133.35175 261.2213 133.86523 262.09766 C 134.49283 263.10547 134.83357 264.28982 134.89062 265.56055 L 134.89062 284.5332 C 134.83357 285.84774 134.49283 287.03125 133.86523 288.03906 C 133.35175 288.91542 132.55124 289.74703 131.41016 290.4043 C 130.26907 291.10539 128.72973 291.5 126.67578 291.5 C 124.62183 291.5 123.0239 291.10539 121.88281 290.4043 C 120.74173 289.74703 119.99982 288.91542 119.48633 288.03906 C 118.85873 287.03125 118.51604 285.84774 118.45898 284.5332 L 118.45898 265.56055 C 118.51604 264.28982 118.85873 263.10547 119.48633 262.09766 C 119.99982 261.2213 120.74173 260.34477 121.88281 259.6875 C 123.0239 259.03023 124.62183 258.5918 126.67578 258.5918 z M 91.074219 258.94336 L 94.78125 258.94336 L 94.78125 291.14844 L 88.619141 291.14844 L 88.619141 265.91016 L 84.511719 265.91016 L 84.511719 262.88672 C 87.079155 262.49236 88.621049 261.48378 89.705078 260.60742 C 90.27562 260.08161 90.731894 259.51299 91.074219 258.94336 z M 126.67578 263.19336 C 125.59175 263.19336 125.07783 263.80732 124.84961 264.37695 C 124.67845 264.7275 124.62109 265.12237 124.62109 265.56055 L 124.62109 284.5332 C 124.62109 285.45338 124.90602 286.06683 125.47656 286.54883 C 125.76183 286.76792 126.16229 286.89844 126.67578 286.89844 C 127.75981 286.89844 128.27374 286.37407 128.50195 285.7168 C 128.67312 285.41007 128.72852 285.0152 128.72852 284.5332 L 128.72852 265.56055 C 128.72852 264.68419 128.50218 264.07074 127.93164 263.54492 C 127.64637 263.32583 127.18927 263.19336 126.67578 263.19336 z M 106.93359 274.84961 C 105.62135 274.84961 105.10784 275.68206 105.05078 276.16406 L 105.05078 285.93555 C 105.05078 286.32991 105.50724 287.38086 106.93359 287.38086 C 108.24584 287.38086 108.81641 286.32991 108.81641 285.93555 L 108.81641 276.29492 C 108.81641 275.90056 108.24584 274.84961 106.93359 274.84961 z "
       transform="translate(0,702.36217)"
       id="rect4525" />
    <text
       xml:space="preserve"
       style="font-style:normal;font-weight:normal;font-size:75.70582581px;line-height:125%;font-family:sans-serif;letter-spacing:0px;word-spacing:0px;fill:#ffffff;fill-opacity:1;stroke:none;stroke-width:1px;stroke-linecap:butt;stroke-linejoin:miter;stroke-opacity:1"
       x="6.5885859"
       y="1106.0449"
       id="text4529"
       sodipodi:linespacing="125%"
       transform="scale(1.1128755,0.89857311)"><tspan
         sodipodi:role="line"
         id="tspan4531"
         x="6.5885859"
         y="1106.0449"
         style="font-style:normal;font-variant:normal;font-weight:normal;font-stretch:normal;font-size:50.00000381px;font-family:'League Gothic';-inkscape-font-specification:'League Gothic';letter-spacing:2.00000024px;word-spacing:0px;fill:#ffffff;fill-opacity:1">4k</tspan></text>
  </g>
  <g
     inkscape:label="1080"
     inkscape:groupmode="layer"
     id="g4383"
     transform="translate(0,-702.36219)"
     style="display:none"
     sodipodi:insensitive="true">
    <rect
       style="opacity:1;fill:#ffffff;fill-opacity:1;stroke:none;stroke-width:5.5;stroke-linecap:butt;stroke-linejoin:miter;stroke-miterlimit:4;stroke-dasharray:none;stroke-opacity:1"
       id="rect4385"
       width="150.00002"
       height="50.000004"
       x="0"
       y="902.36218"
       rx="4.9411759"
       ry="4.516129" />
    <rect
       style="opacity:1;fill:#000000;fill-opacity:1;stroke:none;stroke-width:5.5;stroke-linecap:butt;stroke-linejoin:miter;stroke-miterlimit:4;stroke-dasharray:none;stroke-opacity:1"
       id="rect4387"
       width="50.000008"
       height="45.000004"
       x="2.5000002"
       y="904.86218"
       rx="3.9772725"
       ry="3.7724552" />
    <text
       xml:space="preserve"
       style="font-style:normal;font-weight:normal;font-size:75.70582581px;line-height:125%;font-family:sans-serif;letter-spacing:0px;word-spacing:0px;fill:#ffffff;fill-opacity:1;stroke:none;stroke-width:1px;stroke-linecap:butt;stroke-linejoin:miter;stroke-opacity:1"
       x="4.7392988"
       y="1050.4011"
       id="text4389"
       sodipodi:linespacing="125%"
       transform="scale(1.1128755,0.89857311)"><tspan
         sodipodi:role="line"
         id="tspan4391"
         x="4.7392988"
         y="1050.4011"
         style="font-style:normal;font-variant:normal;font-weight:normal;font-stretch:normal;font-size:50.00000381px;font-family:'League Gothic';-inkscape-font-specification:'League Gothic';letter-spacing:2.00000024px;word-spacing:0px;fill:#ffffff;fill-opacity:1">HD</tspan></text>
    <text
       xml:space="preserve"
       style="font-style:normal;font-weight:normal;font-size:75.97075653px;line-height:125%;font-family:sans-serif;letter-spacing:-36.41168976px;word-spacing:-10.85296249px;fill:#000000;fill-opacity:1;stroke:none;stroke-width:1px;stroke-linecap:butt;stroke-linejoin:miter;stroke-opacity:1"
       x="55.613441"
       y="1076.625"
       id="text4393"
       sodipodi:linespacing="125%"
       transform="scale(1.1410829,0.87636052)"><tspan
         sodipodi:role="line"
         x="55.613441"
         y="1076.625"
         style="font-style:normal;font-variant:normal;font-weight:normal;font-stretch:normal;font-size:50.00000381px;font-family:'League Gothic';-inkscape-font-specification:'League Gothic';letter-spacing:0px;word-spacing:0px"
         id="tspan4395">1080</tspan></text>
  </g>
  <g
     style="display:inline"
     transform="translate(0,-702.36219)"
     id="g4495"
     inkscape:groupmode="layer"
     inkscape:label="1080 Diff">
    <path
       style="opacity:1;fill:#ffffff;fill-opacity:1;stroke:none;stroke-width:5.5;stroke-linecap:butt;stroke-linejoin:miter;stroke-miterlimit:4;stroke-dasharray:none;stroke-opacity:1"
       d="M 4.9414062 200 C 2.2039955 200 0 202.0137 0 204.51562 L 0 245.48438 C 0 247.9863 2.2039955 250 4.9414062 250 L 145.05859 250 C 147.796 250 150 247.9863 150 245.48438 L 150 204.51562 C 150 202.0137 147.796 200 145.05859 200 L 4.9414062 200 z M 6.4765625 202.5 L 48.523438 202.5 C 50.726845 202.5 52.5 204.18154 52.5 206.27148 L 52.5 243.72852 C 52.5 245.81846 50.726845 247.5 48.523438 247.5 L 6.4765625 247.5 C 4.2731541 247.5 2.5 245.81846 2.5 243.72852 L 2.5 206.27148 C 2.5 204.18154 4.2731541 202.5 6.4765625 202.5 z M 86.794922 208.5918 C 88.848871 208.5918 90.388214 209.03023 91.529297 209.6875 C 92.67038 210.34477 93.468935 211.2213 93.982422 212.09766 C 94.610017 213.10547 94.952711 214.28982 95.009766 215.56055 L 95.009766 234.5332 C 94.952711 235.84774 94.610017 237.03125 93.982422 238.03906 C 93.468935 238.91542 92.67038 239.74703 91.529297 240.4043 C 90.388214 241.10539 88.848871 241.5 86.794922 241.5 C 84.740973 241.5 83.143036 241.10539 82.001953 240.4043 C 80.86087 239.74703 80.118956 238.91542 79.605469 238.03906 C 78.977873 237.03125 78.635179 235.84774 78.578125 234.5332 L 78.578125 215.56055 C 78.635179 214.28982 78.977873 213.10547 79.605469 212.09766 C 80.118956 211.2213 80.86087 210.34477 82.001953 209.6875 C 83.143036 209.03023 84.740973 208.5918 86.794922 208.5918 z M 106.5918 208.5918 C 110.47148 208.5918 112.41248 210.12678 113.43945 211.74805 C 114.46643 213.36931 114.4668 215.12126 114.4668 215.51562 L 114.4668 218.23242 C 114.4668 220.46714 113.49607 222.70244 111.61328 224.14844 C 113.72428 225.68207 114.80859 228.09196 114.80859 230.50195 L 114.80859 234.26953 C 114.80859 234.57626 114.75207 235.45227 114.4668 236.50391 C 114.18153 237.59936 113.49501 238.82702 112.29688 239.79102 C 111.09874 240.75501 109.27334 241.5 106.5918 241.5 C 103.91025 241.5 102.08486 240.75501 100.88672 239.79102 C 99.688582 238.82702 99.004021 237.59936 98.71875 236.50391 C 98.433479 235.45227 98.376953 234.57626 98.376953 234.26953 L 98.376953 230.50195 C 98.376953 228.09196 99.461262 225.68207 101.57227 224.14844 C 99.689479 222.70244 98.71875 220.46714 98.71875 218.23242 L 98.71875 215.51562 C 98.71875 215.12126 98.77576 213.36931 99.802734 211.74805 C 100.82971 210.12678 102.71212 208.5918 106.5918 208.5918 z M 126.39062 208.5918 C 128.44457 208.5918 129.98392 209.03023 131.125 209.6875 C 132.26608 210.34477 133.06464 211.2213 133.57812 212.09766 C 134.20572 213.10547 134.54841 214.28982 134.60547 215.56055 L 134.60547 234.5332 C 134.54841 235.84774 134.20572 237.03125 133.57812 238.03906 C 133.06464 238.91542 132.26608 239.74703 131.125 240.4043 C 129.98392 241.10539 128.44457 241.5 126.39062 241.5 C 124.33668 241.5 122.73874 241.10539 121.59766 240.4043 C 120.45657 239.74703 119.71466 238.91542 119.20117 238.03906 C 118.57358 237.03125 118.23088 235.84774 118.17383 234.5332 L 118.17383 215.56055 C 118.23088 214.28982 118.57358 213.10547 119.20117 212.09766 C 119.71466 211.2213 120.45657 210.34477 121.59766 209.6875 C 122.73874 209.03023 124.33668 208.5918 126.39062 208.5918 z M 70.705078 208.94336 L 74.414062 208.94336 L 74.414062 241.15039 L 68.251953 241.15039 L 68.251953 215.91016 L 64.144531 215.91016 L 64.144531 212.88672 C 66.711968 212.49236 68.251909 211.48378 69.335938 210.60742 C 69.906479 210.08161 70.362753 209.51299 70.705078 208.94336 z M 106.5918 212.75586 C 105.90715 212.75586 105.45087 213.06148 105.22266 213.71875 C 104.70917 214.98947 104.65294 219.3277 105.10938 220.86133 C 105.28054 221.65005 105.79304 222.04492 106.5918 222.04492 C 107.39055 222.04492 107.9046 221.65005 108.13281 220.86133 C 108.30397 220.11642 108.41797 218.89054 108.41797 217.18164 C 108.41797 215.69183 108.30397 214.59647 108.13281 213.85156 C 107.9046 213.10666 107.39055 212.75586 106.5918 212.75586 z M 86.794922 213.19336 C 85.710893 213.19336 85.196967 213.80732 84.96875 214.37695 C 84.797588 214.7275 84.740234 215.12237 84.740234 215.56055 L 84.740234 234.5332 C 84.740234 235.45338 85.025162 236.06683 85.595703 236.54883 C 85.880974 236.76792 86.281435 236.89844 86.794922 236.89844 C 87.878951 236.89844 88.390924 236.37407 88.619141 235.7168 C 88.790303 235.41007 88.847656 235.0152 88.847656 234.5332 L 88.847656 215.56055 C 88.847656 214.68419 88.61937 214.07074 88.048828 213.54492 C 87.763557 213.32583 87.308409 213.19336 86.794922 213.19336 z M 126.39062 213.19336 C 125.3066 213.19336 124.79267 213.80732 124.56445 214.37695 C 124.39329 214.7275 124.33594 215.12237 124.33594 215.56055 L 124.33594 234.5332 C 124.33594 235.45338 124.62086 236.06683 125.19141 236.54883 C 125.47668 236.76792 125.87714 236.89844 126.39062 236.89844 C 127.47465 236.89844 127.98663 236.37407 128.21484 235.7168 C 128.38601 235.41007 128.44336 235.0152 128.44336 234.5332 L 128.44336 215.56055 C 128.44336 214.68419 128.21507 214.07074 127.64453 213.54492 C 127.35926 213.32583 126.90411 213.19336 126.39062 213.19336 z M 106.5918 226.68945 C 105.50777 226.68945 104.88015 227.17162 104.70898 228.0918 C 104.25255 229.97597 104.31032 234.66423 104.88086 236.06641 C 105.16613 236.81131 105.73598 237.16211 106.5918 237.16211 C 107.67583 237.16211 108.30499 236.72317 108.5332 235.89062 C 108.70437 235.05808 108.81836 233.87653 108.81836 232.38672 C 108.81836 230.45873 108.70437 229.01198 108.5332 228.0918 C 108.30499 227.17162 107.67583 226.68945 106.5918 226.68945 z "
       transform="translate(0,702.36217)"
       id="rect4497" />
    <text
       transform="scale(1.1128755,0.89857311)"
       sodipodi:linespacing="125%"
       id="text4501"
       y="1050.4011"
       x="4.7392988"
       style="font-style:normal;font-weight:normal;font-size:75.70582581px;line-height:125%;font-family:sans-serif;letter-spacing:0px;word-spacing:0px;fill:#ffffff;fill-opacity:1;stroke:none;stroke-width:1px;stroke-linecap:butt;stroke-linejoin:miter;stroke-opacity:1"
       xml:space="preserve"><tspan
         style="font-style:normal;font-variant:normal;font-weight:normal;font-stretch:normal;font-size:50.00000381px;font-family:'League Gothic';-inkscape-font-specification:'League Gothic';letter-spacing:2.00000024px;word-spacing:0px;fill:#ffffff;fill-opacity:1"
         y="1050.4011"
         x="4.7392988"
         id="tspan4503"
         sodipodi:role="line">HD</tspan></text>
  </g>
  <g
     style="display:none"
     transform="translate(0,-702.36219)"
     id="g4397"
     inkscape:groupmode="layer"
     inkscape:label="720"
     sodipodi:insensitive="true">
    <rect
       ry="4.516129"
       rx="4.9411759"
       y="852.36218"
       x="0"
       height="50.000004"
       width="150.00002"
       id="rect4399"
       style="opacity:1;fill:#ffffff;fill-opacity:1;stroke:none;stroke-width:5.5;stroke-linecap:butt;stroke-linejoin:miter;stroke-miterlimit:4;stroke-dasharray:none;stroke-opacity:1" />
    <rect
       ry="3.7724552"
       rx="3.9772725"
       y="854.86218"
       x="2.5000002"
       height="45.000004"
       width="50.000008"
       id="rect4401"
       style="opacity:1;fill:#000000;fill-opacity:1;stroke:none;stroke-width:5.5;stroke-linecap:butt;stroke-linejoin:miter;stroke-miterlimit:4;stroke-dasharray:none;stroke-opacity:1" />
    <text
       transform="scale(1.1128755,0.89857311)"
       sodipodi:linespacing="125%"
       id="text4403"
       y="994.75745"
       x="4.7914162"
       style="font-style:normal;font-weight:normal;font-size:75.70582581px;line-height:125%;font-family:sans-serif;letter-spacing:0px;word-spacing:0px;fill:#ffffff;fill-opacity:1;stroke:none;stroke-width:1px;stroke-linecap:butt;stroke-linejoin:miter;stroke-opacity:1"
       xml:space="preserve"><tspan
         style="font-style:normal;font-variant:normal;font-weight:normal;font-stretch:normal;font-size:50.00000381px;font-family:'League Gothic';-inkscape-font-specification:'League Gothic';letter-spacing:2.00000024px;word-spacing:0px;fill:#ffffff;fill-opacity:1"
         y="994.75745"
         x="4.7914162"
         id="tspan4405"
         sodipodi:role="line">HD</tspan></text>
    <text
       transform="scale(1.1410829,0.87636052)"
       sodipodi:linespacing="125%"
       id="text4407"
       y="1019.5708"
       x="61.145245"
       style="font-style:normal;font-weight:normal;font-size:75.97075653px;line-height:125%;font-family:sans-serif;letter-spacing:-36.41168976px;word-spacing:-10.85296249px;fill:#000000;fill-opacity:1;stroke:none;stroke-width:1px;stroke-linecap:butt;stroke-linejoin:miter;stroke-opacity:1"
       xml:space="preserve"><tspan
         id="tspan4409"
         style="font-style:normal;font-variant:normal;font-weight:normal;font-stretch:normal;font-size:50.00000381px;font-family:'League Gothic';-inkscape-font-specification:'League Gothic';letter-spacing:0px;word-spacing:0px"
         y="1019.5708"
         x="61.145245"
         sodipodi:role="line">720</tspan></text>
  </g>
  <g
     inkscape:label="720 Diff"
     inkscape:groupmode="layer"
     id="g4509"
     transform="translate(0,-702.36219)"
     style="display:inline">
    <path
       style="opacity:1;fill:#ffffff;fill-opacity:1;stroke:none;stroke-width:5.5;stroke-linecap:butt;stroke-linejoin:miter;stroke-miterlimit:4;stroke-dasharray:none;stroke-opacity:1"
       d="M 4.9414062 150 C 2.2039955 150 0 152.0137 0 154.51562 L 0 195.48438 C 0 197.9863 2.2039955 200 4.9414062 200 L 145.05859 200 C 147.796 200 150 197.9863 150 195.48438 L 150 154.51562 C 150 152.0137 147.796 150 145.05859 150 L 4.9414062 150 z M 6.4765625 152.5 L 48.523438 152.5 C 50.726845 152.5 52.5 154.18154 52.5 156.27148 L 52.5 193.72852 C 52.5 195.81846 50.726845 197.5 48.523438 197.5 L 6.4765625 197.5 C 4.2731541 197.5 2.5 195.81846 2.5 193.72852 L 2.5 156.27148 C 2.5 154.18154 4.2731541 152.5 6.4765625 152.5 z M 96.130859 158.5918 C 99.268837 158.5918 101.37957 159.51189 102.63477 160.91406 C 103.88996 162.36006 104.3457 164.37661 104.3457 166.61133 C 104.3457 169.89768 102.74885 173.7967 100.75195 177.43359 C 98.698004 181.11431 96.302594 184.40149 94.705078 186.46094 L 104.46094 186.46094 L 104.46094 191.14844 L 87.744141 191.14844 L 87.744141 186.46094 C 89.626927 184.22622 91.338444 181.94846 92.878906 179.66992 C 94.191152 177.74193 95.446095 175.55113 96.416016 173.31641 C 97.385936 171.08169 98.12654 168.88978 98.183594 166.91797 C 98.183594 166.04161 98.127068 165.03397 97.841797 164.28906 C 97.556526 163.54416 97.043726 162.97461 96.130859 162.97461 C 95.275047 162.97461 94.761833 163.45711 94.476562 164.1582 C 94.191292 164.90311 94.076172 165.86634 94.076172 166.91797 L 94.076172 169.15234 L 87.914062 169.15234 L 87.914062 166.91797 C 87.914062 164.77089 88.313582 162.6684 89.511719 161.13477 C 90.709856 159.60113 92.764665 158.5918 96.130859 158.5918 z M 116.66992 158.5918 C 118.72387 158.5918 120.26321 159.03023 121.4043 159.6875 C 122.54538 160.34477 123.34589 161.2213 123.85938 162.09766 C 124.48697 163.10547 124.82771 164.28982 124.88477 165.56055 L 124.88477 184.5332 C 124.82771 185.84774 124.48697 187.03125 123.85938 188.03906 C 123.34589 188.91542 122.54538 189.74703 121.4043 190.4043 C 120.26321 191.10539 118.72387 191.5 116.66992 191.5 C 114.61597 191.5 113.01804 191.10539 111.87695 190.4043 C 110.73587 189.74703 109.99396 188.91542 109.48047 188.03906 C 108.85287 187.03125 108.51018 185.84774 108.45312 184.5332 L 108.45312 165.56055 C 108.51018 164.28982 108.85287 163.10547 109.48047 162.09766 C 109.99396 161.2213 110.73587 160.34477 111.87695 159.6875 C 113.01804 159.03023 114.61597 158.5918 116.66992 158.5918 z M 70 158.94336 L 85.519531 158.94336 L 85.519531 163.67578 L 79.357422 191.14844 L 72.966797 191.14844 L 79.242188 163.63086 L 70 163.63086 L 70 158.94336 z M 116.66992 163.19336 C 115.58589 163.19336 115.07197 163.80732 114.84375 164.37695 C 114.67259 164.7275 114.61523 165.12237 114.61523 165.56055 L 114.61523 184.5332 C 114.61523 185.45338 114.90016 186.06683 115.4707 186.54883 C 115.75597 186.76792 116.15643 186.89844 116.66992 186.89844 C 117.75395 186.89844 118.26788 186.37407 118.49609 185.7168 C 118.66726 185.41007 118.72266 185.0152 118.72266 184.5332 L 118.72266 165.56055 C 118.72266 164.68419 118.49632 164.07074 117.92578 163.54492 C 117.64051 163.32583 117.18341 163.19336 116.66992 163.19336 z "
       transform="translate(0,702.36217)"
       id="rect4511" />
    <text
       xml:space="preserve"
       style="font-style:normal;font-weight:normal;font-size:75.70582581px;line-height:125%;font-family:sans-serif;letter-spacing:0px;word-spacing:0px;fill:#ffffff;fill-opacity:1;stroke:none;stroke-width:1px;stroke-linecap:butt;stroke-linejoin:miter;stroke-opacity:1"
       x="4.7914162"
       y="994.75745"
       id="text4515"
       sodipodi:linespacing="125%"
       transform="scale(1.1128755,0.89857311)"><tspan
         sodipodi:role="line"
         id="tspan4517"
         x="4.7914162"
         y="994.75745"
         style="font-style:normal;font-variant:normal;font-weight:normal;font-stretch:normal;font-size:50.00000381px;font-family:'League Gothic';-inkscape-font-specification:'League Gothic';letter-spacing:2.00000024px;word-spacing:0px;fill:#ffffff;fill-opacity:1">HD</tspan></text>
  </g>
  <g
     inkscape:label="576"
     inkscape:groupmode="layer"
     id="g4411"
     transform="translate(0,-702.36219)"
     style="display:none"
     sodipodi:insensitive="true">
    <rect
       style="opacity:1;fill:#ffffff;fill-opacity:1;stroke:none;stroke-width:5.5;stroke-linecap:butt;stroke-linejoin:miter;stroke-miterlimit:4;stroke-dasharray:none;stroke-opacity:1"
       id="rect4413"
       width="150.00002"
       height="50.000004"
       x="0"
       y="802.36218"
       rx="4.9411759"
       ry="4.516129" />
    <rect
       style="opacity:1;fill:#000000;fill-opacity:1;stroke:none;stroke-width:5.5;stroke-linecap:butt;stroke-linejoin:miter;stroke-miterlimit:4;stroke-dasharray:none;stroke-opacity:1"
       id="rect4415"
       width="50.000008"
       height="45.000004"
       x="2.5000002"
       y="804.86218"
       rx="3.9772725"
       ry="3.7724552" />
    <text
       xml:space="preserve"
       style="font-style:normal;font-weight:normal;font-size:75.70582581px;line-height:125%;font-family:sans-serif;letter-spacing:0px;word-spacing:0px;fill:#ffffff;fill-opacity:1;stroke:none;stroke-width:1px;stroke-linecap:butt;stroke-linejoin:miter;stroke-opacity:1"
       x="5.8392992"
       y="939.11359"
       id="text4417"
       sodipodi:linespacing="125%"
       transform="scale(1.1128755,0.89857311)"><tspan
         sodipodi:role="line"
         id="tspan4419"
         x="5.8392992"
         y="939.11359"
         style="font-style:normal;font-variant:normal;font-weight:normal;font-stretch:normal;font-size:50.00000381px;font-family:'League Gothic';-inkscape-font-specification:'League Gothic';letter-spacing:2.00000024px;word-spacing:0px;fill:#ffffff;fill-opacity:1">SD</tspan></text>
    <text
       xml:space="preserve"
       style="font-style:normal;font-weight:normal;font-size:75.97075653px;line-height:125%;font-family:sans-serif;letter-spacing:-36.41168976px;word-spacing:-10.85296249px;fill:#000000;fill-opacity:1;stroke:none;stroke-width:1px;stroke-linecap:butt;stroke-linejoin:miter;stroke-opacity:1"
       x="60.745243"
       y="962.51666"
       id="text4421"
       sodipodi:linespacing="125%"
       transform="scale(1.1410829,0.87636052)"><tspan
         sodipodi:role="line"
         x="60.745243"
         y="962.51666"
         style="font-style:normal;font-variant:normal;font-weight:normal;font-stretch:normal;font-size:50.00000381px;font-family:'League Gothic';-inkscape-font-specification:'League Gothic';letter-spacing:0px;word-spacing:0px"
         id="tspan4423">576</tspan></text>
  </g>
  <g
     style="display:inline"
     transform="translate(0,-702.36219)"
     id="g4481"
     inkscape:groupmode="layer"
     inkscape:label="576 Diff">
    <path
       style="opacity:1;fill:#ffffff;fill-opacity:1;stroke:none;stroke-width:5.5;stroke-linecap:butt;stroke-linejoin:miter;stroke-miterlimit:4;stroke-dasharray:none;stroke-opacity:1"
       d="M 4.9414062 100 C 2.2039955 100 0 102.0137 0 104.51562 L 0 145.48438 C 0 147.9863 2.2039955 150 4.9414062 150 L 145.05859 150 C 147.796 150 150 147.9863 150 145.48438 L 150 104.51562 C 150 102.0137 147.796 100 145.05859 100 L 4.9414062 100 z M 6.4765625 102.5 L 48.523438 102.5 C 50.726846 102.5 52.5 104.18154 52.5 106.27148 L 52.5 143.72852 C 52.5 145.81846 50.726846 147.5 48.523438 147.5 L 6.4765625 147.5 C 4.2731538 147.5 2.5 145.81846 2.5 143.72852 L 2.5 106.27148 C 2.5 104.18154 4.2731538 102.5 6.4765625 102.5 z M 115.24414 108.5918 C 119.12382 108.5918 121.06246 109.95185 122.14648 111.5293 C 123.23051 113.15056 123.28711 115.12135 123.28711 116.2168 L 123.28711 118.23242 L 117.12695 118.23242 C 117.12695 116.08534 117.06806 114.68411 116.83984 113.85156 C 116.61163 113.01902 116.15701 112.71094 115.24414 112.71094 C 114.50244 112.71094 113.98798 112.97529 113.75977 113.54492 C 113.47449 114.11456 113.36133 114.98989 113.36133 116.2168 L 113.36133 121.95703 C 114.44536 121.47503 115.35738 121.16797 116.44141 121.16797 C 119.63644 121.16797 121.34885 122.43877 122.26172 123.88477 C 123.17459 125.33076 123.28711 127.08458 123.28711 127.96094 L 123.28711 134.5332 C 123.28711 135.27811 123.17387 137.03082 122.08984 138.56445 C 121.00582 140.1419 118.95266 141.5 115.24414 141.5 C 111.42151 141.5 109.48051 140.1419 108.39648 138.56445 C 107.31246 137.03082 107.19922 135.27811 107.19922 134.5332 L 107.19922 116.2168 C 107.19922 115.12135 107.25582 113.15056 108.33984 111.5293 C 109.42387 109.95185 111.36446 108.5918 115.24414 108.5918 z M 71.769531 108.94336 L 86.660156 108.94336 L 86.660156 113.63086 L 77.074219 113.63086 L 77.074219 120.33594 C 77.758868 119.94158 78.50161 119.59018 79.357422 119.37109 C 79.756801 119.23964 80.211949 119.19642 80.611328 119.24023 C 83.80636 119.24023 85.518774 120.64215 86.431641 122.17578 C 87.344507 123.70941 87.458984 125.37457 87.458984 125.90039 L 87.458984 133.08594 C 87.458984 134.61957 87.343793 136.67977 86.259766 138.38867 C 85.175737 140.14139 83.122582 141.5 79.414062 141.5 C 75.591436 141.5 73.652388 140.14088 72.568359 138.21289 C 71.484332 136.32872 71.369141 133.91857 71.369141 131.77148 L 77.53125 131.77148 L 77.53125 133.04297 C 77.53125 134.66424 77.644417 135.80452 77.929688 136.41797 C 78.214957 137.07524 78.67236 137.38086 79.414062 137.38086 C 80.041658 137.38086 80.554573 137.07439 80.839844 136.46094 C 81.125114 135.84749 81.296875 134.7072 81.296875 133.08594 L 81.296875 125.90039 C 81.296875 124.54203 80.669667 123.53516 79.357422 123.53516 C 78.672772 123.53516 78.100964 123.92816 77.644531 124.41016 C 77.188098 124.93597 76.960937 125.54985 76.960938 125.90039 L 71.769531 125.90039 L 71.769531 108.94336 z M 89.169922 108.94336 L 104.68945 108.94336 L 104.68945 113.67578 L 98.527344 141.15039 L 92.136719 141.15039 L 98.412109 113.63086 L 89.169922 113.63086 L 89.169922 108.94336 z M 115.24414 124.84961 C 113.9319 124.84961 113.41838 125.68206 113.36133 126.16406 L 113.36133 135.93555 C 113.36133 136.32991 113.81779 137.38086 115.24414 137.38086 C 116.55639 137.38086 117.12695 136.32991 117.12695 135.93555 L 117.12695 126.29492 C 117.12695 125.90056 116.55639 124.84961 115.24414 124.84961 z "
       transform="translate(0,702.36217)"
       id="rect4483" />
    <text
       transform="scale(1.1128755,0.89857311)"
       sodipodi:linespacing="125%"
       id="text4487"
       y="939.11359"
       x="5.8392992"
       style="font-style:normal;font-weight:normal;font-size:75.70582581px;line-height:125%;font-family:sans-serif;letter-spacing:0px;word-spacing:0px;fill:#ffffff;fill-opacity:1;stroke:none;stroke-width:1px;stroke-linecap:butt;stroke-linejoin:miter;stroke-opacity:1"
       xml:space="preserve"><tspan
         style="font-style:normal;font-variant:normal;font-weight:normal;font-stretch:normal;font-size:50.00000381px;font-family:'League Gothic';-inkscape-font-specification:'League Gothic';letter-spacing:2.00000024px;word-spacing:0px;fill:#ffffff;fill-opacity:1"
         y="939.11359"
         x="5.8392992"
         id="tspan4489"
         sodipodi:role="line">SD</tspan></text>
  </g>
  <g
     style="display:none"
     transform="translate(0,-702.36219)"
     id="g4425"
     inkscape:groupmode="layer"
     inkscape:label="540"
     sodipodi:insensitive="true">
    <rect
       ry="4.516129"
       rx="4.9411759"
       y="752.36218"
       x="0"
       height="50.000004"
       width="150.00002"
       id="rect4427"
       style="opacity:1;fill:#ffffff;fill-opacity:1;stroke:none;stroke-width:5.5;stroke-linecap:butt;stroke-linejoin:miter;stroke-miterlimit:4;stroke-dasharray:none;stroke-opacity:1" />
    <rect
       ry="3.7724552"
       rx="3.9772725"
       y="754.86218"
       x="2.5000002"
       height="45.000004"
       width="50.000008"
       id="rect4429"
       style="opacity:1;fill:#000000;fill-opacity:1;stroke:none;stroke-width:5.5;stroke-linecap:butt;stroke-linejoin:miter;stroke-miterlimit:4;stroke-dasharray:none;stroke-opacity:1" />
    <text
       transform="scale(1.1128755,0.89857311)"
       sodipodi:linespacing="125%"
       id="text4431"
       y="883.46991"
       x="5.8392992"
       style="font-style:normal;font-weight:normal;font-size:75.70582581px;line-height:125%;font-family:sans-serif;letter-spacing:0px;word-spacing:0px;fill:#ffffff;fill-opacity:1;stroke:none;stroke-width:1px;stroke-linecap:butt;stroke-linejoin:miter;stroke-opacity:1"
       xml:space="preserve"><tspan
         style="font-style:normal;font-variant:normal;font-weight:normal;font-stretch:normal;font-size:50.00000381px;font-family:'League Gothic';-inkscape-font-specification:'League Gothic';letter-spacing:2.00000024px;word-spacing:0px;fill:#ffffff;fill-opacity:1"
         y="883.46991"
         x="5.8392992"
         id="tspan4433"
         sodipodi:role="line">SD</tspan></text>
    <text
       transform="scale(1.1410829,0.87636052)"
       sodipodi:linespacing="125%"
       id="text4435"
       y="905.46259"
       x="60.745243"
       style="font-style:normal;font-weight:normal;font-size:75.97075653px;line-height:125%;font-family:sans-serif;letter-spacing:-36.41168976px;word-spacing:-10.85296249px;fill:#000000;fill-opacity:1;stroke:none;stroke-width:1px;stroke-linecap:butt;stroke-linejoin:miter;stroke-opacity:1"
       xml:space="preserve"><tspan
         id="tspan4437"
         style="font-style:normal;font-variant:normal;font-weight:normal;font-stretch:normal;font-size:50.00000381px;font-family:'League Gothic';-inkscape-font-specification:'League Gothic';letter-spacing:0px;word-spacing:0px"
         y="905.46259"
         x="60.745243"
         sodipodi:role="line">540</tspan></text>
  </g>
  <g
     inkscape:label="540 Diff"
     inkscape:groupmode="layer"
     id="g4467"
     transform="translate(0,-702.36219)"
     style="display:inline">
    <path
       style="opacity:1;fill:#ffffff;fill-opacity:1;stroke:none;stroke-width:5.5;stroke-linecap:butt;stroke-linejoin:miter;stroke-miterlimit:4;stroke-dasharray:none;stroke-opacity:1"
       d="M 4.9414062 50 C 2.2039955 50 0 52.01369 0 54.515625 L 0 95.484375 C 0 97.98631 2.2039955 100 4.9414062 100 L 145.05859 100 C 147.796 100 150 97.98631 150 95.484375 L 150 54.515625 C 150 52.01369 147.796 50 145.05859 50 L 4.9414062 50 z M 6.4765625 52.5 L 48.523438 52.5 C 50.726845 52.5 52.5 54.181544 52.5 56.271484 L 52.5 93.728516 C 52.5 95.818456 50.726845 97.5 48.523438 97.5 L 6.4765625 97.5 C 4.2731541 97.5 2.5 95.818456 2.5 93.728516 L 2.5 56.271484 C 2.5 54.181544 4.2731541 52.5 6.4765625 52.5 z M 118.09766 58.591797 C 120.15161 58.591797 121.69095 59.03023 122.83203 59.6875 C 123.97311 60.34477 124.77167 61.221296 125.28516 62.097656 C 125.91275 63.105471 126.25545 64.289824 126.3125 65.560547 L 126.3125 84.533203 C 126.25545 85.847744 125.91275 87.031248 125.28516 88.039062 C 124.77167 88.915423 123.97311 89.747026 122.83203 90.404297 C 121.69095 91.105385 120.15161 91.5 118.09766 91.5 C 116.04371 91.5 114.44577 91.105385 113.30469 90.404297 C 112.1636 89.747026 111.42169 88.915423 110.9082 88.039062 C 110.28061 87.031248 109.93791 85.847744 109.88086 84.533203 L 109.88086 65.560547 C 109.93791 64.289824 110.28061 63.105471 110.9082 62.097656 C 111.42169 61.221296 112.1636 60.34477 113.30469 59.6875 C 114.44577 59.03023 116.04371 58.591797 118.09766 58.591797 z M 71.769531 58.943359 L 86.660156 58.943359 L 86.660156 63.630859 L 77.074219 63.630859 L 77.074219 70.335938 C 77.758868 69.941575 78.50161 69.590184 79.357422 69.371094 C 79.756801 69.23964 80.211949 69.196416 80.611328 69.240234 C 83.80636 69.240234 85.518774 70.64215 86.431641 72.175781 C 87.344507 73.709412 87.458984 75.374574 87.458984 75.900391 L 87.458984 83.087891 C 87.458984 84.621522 87.343794 86.679769 86.259766 88.388672 C 85.175737 90.141393 83.122582 91.5 79.414062 91.5 C 75.591435 91.5 73.652388 90.140884 72.568359 88.212891 C 71.484331 86.328715 71.369141 83.918568 71.369141 81.771484 L 77.53125 81.771484 L 77.53125 83.042969 C 77.53125 84.664236 77.644417 85.804516 77.929688 86.417969 C 78.214958 87.075239 78.672359 87.380859 79.414062 87.380859 C 80.041658 87.380859 80.554573 87.07439 80.839844 86.460938 C 81.125114 85.847485 81.296875 84.709158 81.296875 83.087891 L 81.296875 75.900391 C 81.296875 74.542032 80.669667 73.535156 79.357422 73.535156 C 78.672772 73.535156 78.100964 73.928158 77.644531 74.410156 C 77.188098 74.935973 76.960937 75.549846 76.960938 75.900391 L 71.769531 75.900391 L 71.769531 58.943359 z M 98.640625 58.943359 L 104.80273 58.943359 L 104.80273 79.976562 L 107.65625 79.976562 L 107.65625 84.138672 L 104.80273 84.138672 L 104.80273 91.150391 L 99.154297 91.150391 L 99.154297 84.138672 L 89.626953 84.138672 L 89.626953 79.976562 L 98.640625 58.943359 z M 118.09766 63.193359 C 117.01363 63.193359 116.4997 63.807319 116.27148 64.376953 C 116.10032 64.727497 116.04297 65.122367 116.04297 65.560547 L 116.04297 84.533203 C 116.04297 85.453382 116.3279 86.06683 116.89844 86.548828 C 117.18371 86.767918 117.58417 86.898438 118.09766 86.898438 C 119.18168 86.898438 119.69561 86.374067 119.92383 85.716797 C 120.09499 85.410071 120.15039 85.015201 120.15039 84.533203 L 120.15039 65.560547 C 120.15039 64.684186 119.9221 64.070738 119.35156 63.544922 C 119.06629 63.325832 118.61114 63.193359 118.09766 63.193359 z M 98.8125 68.933594 L 98.46875 69.898438 L 94.875 79.976562 L 99.154297 79.976562 L 99.154297 68.933594 L 98.8125 68.933594 z "
       transform="translate(0,702.36217)"
       id="rect4469" />
    <text
       xml:space="preserve"
       style="font-style:normal;font-weight:normal;font-size:75.70582581px;line-height:125%;font-family:sans-serif;letter-spacing:0px;word-spacing:0px;fill:#ffffff;fill-opacity:1;stroke:none;stroke-width:1px;stroke-linecap:butt;stroke-linejoin:miter;stroke-opacity:1"
       x="5.8392992"
       y="883.46991"
       id="text4473"
       sodipodi:linespacing="125%"
       transform="scale(1.1128755,0.89857311)"><tspan
         sodipodi:role="line"
         id="tspan4475"
         x="5.8392992"
         y="883.46991"
         style="font-style:normal;font-variant:normal;font-weight:normal;font-stretch:normal;font-size:50.00000381px;font-family:'League Gothic';-inkscape-font-specification:'League Gothic';letter-spacing:2.00000024px;word-spacing:0px;fill:#ffffff;fill-opacity:1">SD</tspan></text>
  </g>
  <g
     inkscape:label="480"
     inkscape:groupmode="layer"
     id="g4439"
     transform="translate(0,-702.36219)"
     style="display:none"
     sodipodi:insensitive="true">
    <rect
       style="opacity:1;fill:#ffffff;fill-opacity:1;stroke:none;stroke-width:5.5;stroke-linecap:butt;stroke-linejoin:miter;stroke-miterlimit:4;stroke-dasharray:none;stroke-opacity:1"
       id="rect4441"
       width="150.00002"
       height="50.000004"
       x="0"
       y="702.36218"
       rx="4.9411759"
       ry="4.516129" />
    <rect
       style="opacity:1;fill:#000000;fill-opacity:1;stroke:none;stroke-width:5.5;stroke-linecap:butt;stroke-linejoin:miter;stroke-miterlimit:4;stroke-dasharray:none;stroke-opacity:1"
       id="rect4443"
       width="50.000008"
       height="45.000004"
       x="2.5000002"
       y="704.86218"
       rx="3.9772725"
       ry="3.7724552" />
    <text
       xml:space="preserve"
       style="font-style:normal;font-weight:normal;font-size:75.70582581px;line-height:125%;font-family:sans-serif;letter-spacing:0px;word-spacing:0px;fill:#ffffff;fill-opacity:1;stroke:none;stroke-width:1px;stroke-linecap:butt;stroke-linejoin:miter;stroke-opacity:1"
       x="5.8392992"
       y="827.82605"
       id="text4445"
       sodipodi:linespacing="125%"
       transform="scale(1.1128755,0.89857311)"><tspan
         sodipodi:role="line"
         id="tspan4447"
         x="5.8392992"
         y="827.82605"
         style="font-style:normal;font-variant:normal;font-weight:normal;font-stretch:normal;font-size:50.00000381px;font-family:'League Gothic';-inkscape-font-specification:'League Gothic';letter-spacing:2.00000024px;word-spacing:0px;fill:#ffffff;fill-opacity:1">SD</tspan></text>
    <text
       xml:space="preserve"
       style="font-style:normal;font-weight:normal;font-size:75.97075653px;line-height:125%;font-family:sans-serif;letter-spacing:-36.41168976px;word-spacing:-10.85296249px;fill:#000000;fill-opacity:1;stroke:none;stroke-width:1px;stroke-linecap:butt;stroke-linejoin:miter;stroke-opacity:1"
       x="60.745243"
       y="848.40839"
       id="text4449"
       sodipodi:linespacing="125%"
       transform="scale(1.1410829,0.87636052)"><tspan
         sodipodi:role="line"
         x="60.745243"
         y="848.40839"
         style="font-style:normal;font-variant:normal;font-weight:normal;font-stretch:normal;font-size:50.00000381px;font-family:'League Gothic';-inkscape-font-specification:'League Gothic';letter-spacing:0px;word-spacing:0px"
         id="tspan4451">480</tspan></text>
  </g>
  <g
     style="display:inline"
     transform="translate(0,-702.36219)"
     id="g4453"
     inkscape:groupmode="layer"
     inkscape:label="480 Diff">
    <path
       style="opacity:1;fill:#ffffff;fill-opacity:1;stroke:none;stroke-width:5.5;stroke-linecap:butt;stroke-linejoin:miter;stroke-miterlimit:4;stroke-dasharray:none;stroke-opacity:1"
       d="M 4.9414062 0 C 2.2039955 0 0 2.0136898 0 4.515625 L 0 45.484375 C 0 47.98631 2.2039955 50 4.9414062 50 L 145.05859 50 C 147.796 50 150 47.98631 150 45.484375 L 150 4.515625 C 150 2.0136898 147.796 0 145.05859 0 L 4.9414062 0 z M 6.4765625 2.5 L 48.523438 2.5 C 50.726846 2.5 52.5 4.1834974 52.5 6.2734375 L 52.5 43.728516 C 52.5 45.818456 50.726846 47.5 48.523438 47.5 L 6.4765625 47.5 C 4.2731538 47.5 2.5 45.818456 2.5 43.728516 L 2.5 6.2734375 C 2.5 4.1834974 4.2731538 2.5 6.4765625 2.5 z M 98.527344 8.5917969 C 102.40703 8.5917969 104.34803 10.12678 105.375 11.748047 C 106.40197 13.369314 106.40039 15.121263 106.40039 15.515625 L 106.40039 18.232422 C 106.40039 20.467141 105.43161 22.702443 103.54883 24.148438 C 105.65983 25.682067 106.74414 28.091962 106.74414 30.501953 L 106.74414 34.269531 C 106.74414 34.576257 106.68566 35.452274 106.40039 36.503906 C 106.11512 37.599357 105.43056 38.827019 104.23242 39.791016 C 103.03428 40.755012 101.20889 41.5 98.527344 41.5 C 95.845799 41.5 94.020402 40.755012 92.822266 39.791016 C 91.624129 38.827019 90.939568 37.599357 90.654297 36.503906 C 90.369026 35.452274 90.3125 34.576257 90.3125 34.269531 L 90.3125 30.501953 C 90.3125 28.091962 91.39681 25.682067 93.507812 24.148438 C 91.625027 22.702443 90.654297 20.467141 90.654297 18.232422 L 90.654297 15.515625 C 90.654297 15.121263 90.711307 13.369314 91.738281 11.748047 C 92.765256 10.12678 94.647662 8.5917969 98.527344 8.5917969 z M 118.32617 8.5917969 C 120.38012 8.5917969 121.91946 9.0302296 123.06055 9.6875 C 124.20163 10.34477 125.00018 11.221296 125.51367 12.097656 C 126.14127 13.105471 126.48396 14.289824 126.54102 15.560547 L 126.54102 34.533203 C 126.48396 35.847744 126.14127 37.031249 125.51367 38.039062 C 125.00018 38.915423 124.20163 39.747026 123.06055 40.404297 C 121.91946 41.105385 120.38012 41.5 118.32617 41.5 C 116.27222 41.5 114.67429 41.105385 113.5332 40.404297 C 112.39212 39.747026 111.65021 38.915423 111.13672 38.039062 C 110.50912 37.031249 110.16642 35.847744 110.10938 34.533203 L 110.10938 15.560547 C 110.16642 14.289824 110.50912 13.105471 111.13672 12.097656 C 111.65021 11.221296 112.39212 10.34477 113.5332 9.6875 C 114.67429 9.0302296 116.27222 8.5917969 118.32617 8.5917969 z M 79.013672 8.9433594 L 85.175781 8.9433594 L 85.175781 29.976562 L 88.029297 29.976562 L 88.029297 34.138672 L 85.175781 34.138672 L 85.175781 41.150391 L 79.527344 41.150391 L 79.527344 34.138672 L 70 34.138672 L 70 29.976562 L 79.013672 8.9433594 z M 98.527344 12.755859 C 97.842694 12.755859 97.38642 13.06148 97.158203 13.71875 C 96.644716 14.989473 96.588489 19.327697 97.044922 20.861328 C 97.216084 21.650053 97.728586 22.044922 98.527344 22.044922 C 99.326102 22.044922 99.840142 21.650053 100.06836 20.861328 C 100.23952 20.116422 100.35352 18.890544 100.35352 17.181641 C 100.35352 15.691828 100.23952 14.596469 100.06836 13.851562 C 99.840142 13.106657 99.326102 12.755859 98.527344 12.755859 z M 118.32617 13.193359 C 117.24214 13.193359 116.72822 13.807319 116.5 14.376953 C 116.32884 14.727497 116.27148 15.122367 116.27148 15.560547 L 116.27148 34.533203 C 116.27148 35.453382 116.55641 36.06683 117.12695 36.548828 C 117.41222 36.767918 117.81268 36.898437 118.32617 36.898438 C 119.4102 36.898438 119.92217 36.374067 120.15039 35.716797 C 120.32155 35.410071 120.37891 35.015201 120.37891 34.533203 L 120.37891 15.560547 C 120.37891 14.684186 120.15062 14.070738 119.58008 13.544922 C 119.29481 13.325832 118.83966 13.193359 118.32617 13.193359 z M 79.185547 18.933594 L 78.84375 19.898438 L 75.248047 29.976562 L 79.527344 29.976562 L 79.527344 18.933594 L 79.185547 18.933594 z M 98.527344 26.689453 C 97.443315 26.689453 96.815694 27.171618 96.644531 28.091797 C 96.188098 29.975972 96.245865 34.664229 96.816406 36.066406 C 97.101677 36.811313 97.671532 37.162109 98.527344 37.162109 C 99.611372 37.162109 100.23858 36.723168 100.4668 35.890625 C 100.63796 35.058082 100.75391 33.876532 100.75391 32.386719 C 100.75391 30.458726 100.63796 29.011975 100.4668 28.091797 C 100.23858 27.171618 99.611372 26.689453 98.527344 26.689453 z "
       transform="translate(0,702.36217)"
       id="rect4455" />
    <text
       transform="scale(1.1128755,0.89857311)"
       sodipodi:linespacing="125%"
       id="text4459"
       y="827.82605"
       x="5.8392992"
       style="font-style:normal;font-weight:normal;font-size:75.70582581px;line-height:125%;font-family:sans-serif;letter-spacing:0px;word-spacing:0px;fill:#ffffff;fill-opacity:1;stroke:none;stroke-width:1px;stroke-linecap:butt;stroke-linejoin:miter;stroke-opacity:1"
       xml:space="preserve"><tspan
         style="font-style:normal;font-variant:normal;font-weight:normal;font-stretch:normal;font-size:50.00000381px;font-family:'League Gothic';-inkscape-font-specification:'League Gothic';letter-spacing:2.00000024px;word-spacing:0px;fill:#ffffff;fill-opacity:1"
         y="827.82605"
         x="5.8392992"
         id="tspan4461"
         sodipodi:role="line">SD</tspan></text>
  </g>
</svg>
